<?xml version="1.0" encoding="UTF-8" standalone="no"?>
<!DOCTYPE svg PUBLIC "-//W3C//DTD SVG 1.1//EN" "http://www.w3.org/Graphics/SVG/1.1/DTD/svg11.dtd">
<svg width="100%" height="100%" viewBox="0 0 881 673" version="1.1" xmlns="http://www.w3.org/2000/svg" xmlns:xlink="http://www.w3.org/1999/xlink" xml:space="preserve" xmlns:serif="http://www.serif.com/" style="fill-rule:evenodd;clip-rule:evenodd;stroke-linejoin:round;stroke-miterlimit:2;">
    <g id="Artboard1" transform="matrix(1,0,0,1,-547.827,-212.014)">
        <rect x="547.827" y="212.014" width="880.543" height="672.039" style="fill:none;"/>
        <g transform="matrix(1,0,0,1,-0.927267,-48.0082)">
            <path d="M1142.89,890.519C1142.89,887.983 1140.84,885.924 1138.3,885.924L836.838,885.924C834.302,885.924 832.243,887.983 832.243,890.519L832.243,899.711C832.243,902.247 834.302,904.306 836.838,904.306L1138.3,904.306C1140.84,904.306 1142.89,902.247 1142.89,899.711L1142.89,890.519Z" style="fill:rgb(179,179,179);"/>
        </g>
        <g transform="matrix(1.27274,0,0,0.973545,-235.417,-61.8975)">
            <path d="M1033.27,924.265L887.088,924.265L923.633,746.373L996.722,746.373L1033.27,924.265Z" style="fill:rgb(191,191,191);"/>
        </g>
        <g transform="matrix(1.09231,0,0,1,-91.013,-2.17265)">
            <path d="M1063.18,805.432L909.998,805.276L932.466,713.467L1040.55,713.186L1063.18,805.432Z" style="fill:rgb(153,153,153);"/>
        </g>
        <g transform="matrix(1,0,0,1,0.827024,0.0142043)">
            <path d="M1407.83,252.215C1407.83,238.209 1396.46,226.838 1382.45,226.838L589.176,226.838C575.17,226.838 563.799,238.209 563.799,252.215L563.799,735.123C563.799,749.129 575.17,760.5 589.176,760.5L1382.45,760.5C1396.46,760.5 1407.83,749.129 1407.83,735.123L1407.83,252.215Z" style="fill:rgb(191,191,191);"/>
        </g>
        <g transform="matrix(1,0,0,1,0.827024,0.0142043)">
            <path d="M1407.83,252.215C1407.83,238.209 1396.46,226.838 1382.45,226.838L589.176,226.838C575.17,226.838 563.799,238.209 563.799,252.215L563.799,735.123C563.799,749.129 575.17,760.5 589.176,760.5L1382.45,760.5C1396.46,760.5 1407.83,749.129 1407.83,735.123L1407.83,252.215Z"/>
        </g>
        <g transform="matrix(0.951387,0,0,0.69709,48.7501,89.5658)">
            <path d="M1407.83,246.134C1407.83,235.484 1401.49,226.838 1393.69,226.838L577.937,226.838C570.134,226.838 563.799,235.484 563.799,246.134L563.799,741.204C563.799,751.854 570.134,760.5 577.937,760.5L1393.69,760.5C1401.49,760.5 1407.83,751.854 1407.83,741.204L1407.83,246.134Z" style="fill:rgb(64,64,64);"/>
        </g>
        <g transform="matrix(1,0,0,1,0.827024,0.0142043)">
            <path d="M1407.83,642.623L563.799,642.623L563.799,735.123C563.799,749.129 575.17,760.5 589.176,760.5L1382.45,760.5C1396.46,760.5 1407.83,749.129 1407.83,735.123L1407.83,642.623Z" style="fill:rgb(191,191,191);"/>
        </g>
        <g transform="matrix(1,0,0,1,29.2524,18.3173)">
            <circle cx="957.389" cy="683.258" r="18.303" style="fill:rgb(153,153,153);"/>
        </g>
    </g>
</svg>
