<svg xmlns="http://www.w3.org/2000/svg" xmlns:xlink="http://www.w3.org/1999/xlink" version="1.1" viewBox="0 0 100 80" style="enable-background:new 0 0 100 100;" xml:space="preserve">
<style>
path {
	fill: black;
	stroke: white;
	stroke-opacity: .65;
	stroke-linejoin: round;
}
</style>
<path d="M43.76,35.51C30.68,28.95,9.59,38.09,2.9,25.12c-1.85-3.58-4.7-0.47-1.35,12.15  c4.42,16.67,16.27,21.1,8.24,32.94C26.97,85.47,36.59,67.24,50,65.76c13.41,1.48,23.03,19.71,40.22,4.46  c-8.03-11.84,3.81-16.27,8.24-32.94c3.35-12.62,0.5-15.73-1.35-12.15c-6.69,12.97-27.78,3.82-40.86,10.38  c-0.77-5.05-3.27-8.76-6.24-8.76C47.03,26.74,44.53,30.45,43.76,35.51L43.76,35.51z M56.65,55.26c3.84-8.76,13.28-10.79,25.27-7.5  C79.6,60.08,64.15,60.57,56.65,55.26L56.65,55.26z M43.35,55.26c-7.5,5.31-22.94,4.82-25.27-7.5C30.07,44.46,39.51,46.5,43.35,55.26  z"/>
</svg>